<svg width="14" height="14" viewBox="0 0 14 14" fill="none" xmlns="http://www.w3.org/2000/svg">
<path d="M0 5.2V0.8C0 0.587827 0.0842853 0.384344 0.234314 0.234314C0.384344 0.0842853 0.587827 0 0.8 0H5.2C5.41217 0 5.61566 0.0842853 5.76569 0.234314C5.91571 0.384344 6 0.587827 6 0.8V5.2C6 5.41217 5.91571 5.61566 5.76569 5.76569C5.61566 5.91571 5.41217 6 5.2 6H0.8C0.587827 6 0.384344 5.91571 0.234314 5.76569C0.0842853 5.61566 0 5.41217 0 5.2ZM8 5.2V0.8C8 0.587827 8.08429 0.384344 8.23431 0.234314C8.38434 0.0842853 8.58783 0 8.8 0H13.2C13.4122 0 13.6157 0.0842853 13.7657 0.234314C13.9157 0.384344 14 0.587827 14 0.8V5.2C14 5.41217 13.9157 5.61566 13.7657 5.76569C13.6157 5.91571 13.4122 6 13.2 6H8.8C8.58783 6 8.38434 5.91571 8.23431 5.76569C8.08429 5.61566 8 5.41217 8 5.2ZM8 13.2V8.8C8 8.58783 8.08429 8.38434 8.23431 8.23431C8.38434 8.08429 8.58783 8 8.8 8H13.2C13.4122 8 13.6157 8.08429 13.7657 8.23431C13.9157 8.38434 14 8.58783 14 8.8V13.2C14 13.4122 13.9157 13.6157 13.7657 13.7657C13.6157 13.9157 13.4122 14 13.2 14H8.8C8.58783 14 8.38434 13.9157 8.23431 13.7657C8.08429 13.6157 8 13.4122 8 13.2ZM0 13.2V8.8C0 8.58783 0.0842853 8.38434 0.234314 8.23431C0.384344 8.08429 0.587827 8 0.8 8H5.2C5.41217 8 5.61566 8.08429 5.76569 8.23431C5.91571 8.38434 6 8.58783 6 8.8V13.2C6 13.4122 5.91571 13.6157 5.76569 13.7657C5.61566 13.9157 5.41217 14 5.2 14H0.8C0.587827 14 0.384344 13.9157 0.234314 13.7657C0.0842853 13.6157 0 13.4122 0 13.2Z" fill="#080844" fill-opacity="0.58"/>
</svg>
