<svg width="24" height="24" viewBox="0 0 24 24" fill="none" xmlns="http://www.w3.org/2000/svg">
<path d="M12 1.19922C10.5817 1.19922 9.17735 1.47857 7.86703 2.02132C6.55672 2.56407 5.36613 3.35959 4.36326 4.36247C2.33787 6.38786 1.20001 9.13488 1.20001 11.9992C1.20001 14.8636 2.33787 17.6106 4.36326 19.636C5.36613 20.6388 6.55672 21.4344 7.86703 21.9771C9.17735 22.5199 10.5817 22.7992 12 22.7992C14.8644 22.7992 17.6114 21.6614 19.6368 19.636C21.6622 17.6106 22.8 14.8636 22.8 11.9992C22.8 10.5809 22.5207 9.17655 21.9779 7.86624C21.4352 6.55592 20.6396 5.36534 19.6368 4.36247C18.6339 3.35959 17.4433 2.56407 16.133 2.02132C14.8227 1.47857 13.4183 1.19922 12 1.19922ZM16.536 16.5352L10.92 13.0792V6.59922H12.54V12.2152L17.4 15.1312L16.536 16.5352Z" fill="#080844"/>
</svg>
