<svg xmlns="http://www.w3.org/2000/svg" width="24" height="24" viewBox="0 0 24 24" fill="none">
    <path fill-rule="evenodd" clip-rule="evenodd" d="M6.98 21.0002C6.01 21.9702 1.98999 22.0002 1.98999 22.0002C1.98999 22.0002 2.01999 17.9702 2.98999 17.0002L14.96 5.00021L18.95 9.00021L6.98 21.0002ZM6.03999 19.0002C5.06999 19.9702 4.04999 20.0002 4.04999 20.0002C4.04999 20.0002 4.07999 18.9702 5.04999 18.0002L14.96 8.00021L16.01 9.00021L6.03999 19.0002ZM22 5.49023C22 5.17023 21.87 4.87023 21.64 4.64023L19.3 2.34024C19.07 2.12024 18.77 1.99023 18.45 1.99023C18.13 1.99023 17.82 2.12022 17.59 2.35022L15.95 3.99023L19.94 7.99023L21.63 6.34024C21.87 6.12024 22 5.81023 22 5.49023Z" fill="#393939"/>
</svg>
