<svg width="24" height="25" viewBox="0 0 24 25" fill="none" xmlns="http://www.w3.org/2000/svg">
<g id="Icon/Save">
<path id="Vector" fill-rule="evenodd" clip-rule="evenodd" d="M18.09 4.58026C17.71 4.20026 17.21 3.99023 16.68 3.99023H5.51001C4.41001 3.99023 3.51001 4.89023 3.51001 5.99023V19.9902C3.51001 21.0902 4.41001 21.9902 5.51001 21.9902H19.51C20.61 21.9902 21.51 21.0902 21.51 19.9902V8.82025C21.51 8.29025 21.3 7.78028 20.92 7.41028L18.09 4.58026ZM15.5 17.0002C15.5 18.6602 14.16 20.0002 12.5 20.0002C10.84 20.0002 9.50002 18.6602 9.50002 17.0002C9.50002 15.3402 10.84 14.0002 12.5 14.0002C14.16 14.0002 15.5 15.3402 15.5 17.0002ZM16.5 7.00024H6.50002V11.0002H16.5V7.00024Z" fill="white"/>
</g>
</svg>
