<svg width="20" height="20" viewBox="0 0 20 20" fill="none" xmlns="http://www.w3.org/2000/svg">
<path d="M8.33352 17.3141C7.6084 17.1489 6.91189 16.8768 6.26685 16.5066M11.6668 2.68579C13.3236 3.06418 14.8029 3.99387 15.8624 5.32263C16.9219 6.65139 17.4989 8.3005 17.4989 9.99996C17.4989 11.6994 16.9219 13.3485 15.8624 14.6773C14.8029 16.006 13.3236 16.9357 11.6668 17.3141M3.81602 14.2441C3.36193 13.5834 3.01671 12.8541 2.79352 12.0841M2.60352 8.74996C2.73685 7.95829 2.99352 7.20829 3.35352 6.52079L3.49435 6.26662M5.75602 3.81579C6.53618 3.27986 7.41074 2.89644 8.33352 2.68579" stroke="#224687" stroke-width="1.66667" strokeLinecap="round" strokeLinejoin="round"/>
<path d="M7.5 9.99992L9.16667 11.6666L12.5 8.33325" stroke="#224687" stroke-width="1.66667" strokeLinecap="round" strokeLinejoin="round"/>
</svg>
