<svg xmlns="http://www.w3.org/2000/svg" width="24" height="24" viewBox="0 0 24 24" fill="none">
    <path fill-rule="evenodd" clip-rule="evenodd" d="M13.5 3C14.26 3 15.01 4 15 5H19C19.55 5 20 5.45 20 6C20 6.55 19.55 7 19 7H5C4.45 7 4 6.55 4 6C4 5.45 4.45 5 5 5H9C9 4 9.75 3 10.5 3H13.5ZM11 5H13V4H11V5ZM5 7V18.27C5 19.78 6.62 21 8 21H16C17.39 21 19 19.71 19 18.2V7H17V17.08C17 18.32 15.99 19 15 19H9C8.01 19 7 18.32 7 17.08V7H5ZM9.00999 9.49002C9.00999 9.22002 9.46999 9 10.01 9C10.55 9 10.99 9.22002 10.99 9.49002V16.51C10.99 16.78 10.55 17 10.01 17C9.46999 17 9.00999 16.78 9.00999 16.51V9.49002ZM14.99 16.51V9.49002C14.99 9.22002 14.55 9 14.01 9C13.47 9 13.01 9.22002 13.01 9.49002V16.51C13.01 16.78 13.47 17 14.01 17C14.55 17 14.99 16.78 14.99 16.51Z" fill="#393939"/>
</svg>