<svg xmlns="http://www.w3.org/2000/svg" width="24" height="24" viewBox="0 0 24 24" fill="none">
<g clip-path="url(#clip0_2420_3416)">
<path d="M11.3327 14.6667C11.3327 14.4899 11.4029 14.3204 11.5279 14.1953C11.653 14.0703 11.8225 14.0001 11.9993 14.0001H17.3327V4.00008C17.3327 3.64646 17.1922 3.30732 16.9422 3.05727C16.6921 2.80722 16.353 2.66675 15.9993 2.66675H7.24602L2.66602 7.24008V20.0001C2.66602 20.3537 2.80649 20.6928 3.05654 20.9429C3.30659 21.1929 3.64573 21.3334 3.99935 21.3334H15.9993C16.353 21.3334 16.6921 21.1929 16.9422 20.9429C17.1922 20.6928 17.3327 20.3537 17.3327 20.0001V15.3334H11.9993C11.8225 15.3334 11.653 15.2632 11.5279 15.1382C11.4029 15.0131 11.3327 14.8436 11.3327 14.6667ZM7.99935 8.00008H3.99935V7.78675L7.79268 4.00008H7.99935V8.00008Z" fill="white"/>
<path d="M19.5473 10.9001C19.4198 10.7908 19.2557 10.7338 19.0879 10.7402C18.9202 10.7467 18.761 10.8163 18.6423 10.935C18.5235 11.0537 18.454 11.2129 18.4475 11.3807C18.441 11.5485 18.4981 11.7125 18.6073 11.8401L20.774 14.0001H17.334V15.3334H20.794L18.6073 17.5201C18.5375 17.5798 18.4808 17.6534 18.4408 17.7361C18.4008 17.8188 18.3783 17.9089 18.3748 18.0007C18.3712 18.0925 18.3867 18.1841 18.4202 18.2696C18.4537 18.3552 18.5046 18.4328 18.5696 18.4978C18.6345 18.5628 18.7122 18.6136 18.7978 18.6471C18.8833 18.6807 18.9749 18.6961 19.0667 18.6926C19.1585 18.689 19.2486 18.6666 19.3313 18.6265C19.414 18.5865 19.4876 18.5298 19.5473 18.4601L23.334 14.6667L19.5473 10.9001Z" fill="white"/>
</g>
<defs>
<clipPath id="clip0_2420_3416">
<rect width="24" height="24" fill="white"/>
</clipPath>
</defs>
</svg>