<svg width="24" height="25" viewBox="0 0 24 25" fill="none" xmlns="http://www.w3.org/2000/svg">
<g id="Icon/Chevron_left">
<path id="Vector" fill-rule="evenodd" clip-rule="evenodd" d="M12 5.5H20C21.11 5.5 22 6.39 22 7.5V19.5C22 20.61 21.11 21.5 20 21.5H4C2.89 21.5 2 20.61 2 19.5L2.01001 5.5C2.01001 4.39 2.89 3.5 4 3.5H10L12 5.5ZM15.82 10.15C15.49 9.88999 15.01 10.12 15.01 10.54V12C15.01 12.28 14.79 12.5 14.51 12.5H10.51C10.23 12.5 10.01 12.72 10.01 13V14C10.01 14.28 10.23 14.5 10.51 14.5H14.51C14.79 14.5 15.01 14.72 15.01 15V16.46C15.01 16.88 15.49 17.11 15.82 16.85L19.52 13.89C19.77 13.69 19.77 13.31 19.52 13.11L15.82 10.15Z" fill="white"/>
</g>
</svg>
