<svg width="20" height="20" viewBox="0 0 20 20" fill="none" xmlns="http://www.w3.org/2000/svg">
<g clip-path="url(#clip0_1353_11098)">
<path d="M19.1667 15.8333C19.1667 16.7174 18.8155 17.5652 18.1904 18.1904C17.5652 18.8155 16.7174 19.1667 15.8333 19.1667H14.1667V17.5H15.8333C16.2754 17.5 16.6993 17.3244 17.0118 17.0118C17.3244 16.6993 17.5 16.2754 17.5 15.8333C17.5 15.3913 17.3244 14.9674 17.0118 14.6548C16.6993 14.3423 16.2754 14.1667 15.8333 14.1667H14.1667V12.5H15.8333C16.7174 12.5 17.5652 12.8512 18.1904 13.4763C18.8155 14.1014 19.1667 14.9493 19.1667 15.8333ZM7.5 15.8333C7.5 14.9493 7.85119 14.1014 8.47631 13.4763C9.10143 12.8512 9.94928 12.5 10.8333 12.5H12.5V14.1667H10.8333C10.3913 14.1667 9.96738 14.3423 9.65482 14.6548C9.34226 14.9674 9.16667 15.3913 9.16667 15.8333C9.16667 16.2754 9.34226 16.6993 9.65482 17.0118C9.96738 17.3244 10.3913 17.5 10.8333 17.5H12.5V19.1667H10.8333C9.94928 19.1667 9.10143 18.8155 8.47631 18.1904C7.85119 17.5652 7.5 16.7174 7.5 15.8333Z" fill="#224687"/>
<path d="M11.6667 15.0001H15V16.6667H11.6667V15.0001ZM7.5 4.16675C7.00555 4.16675 6.5222 4.31337 6.11107 4.58807C5.69995 4.86278 5.37952 5.25322 5.1903 5.71004C5.00108 6.16685 4.95157 6.66952 5.04804 7.15447C5.1445 7.63943 5.3826 8.08488 5.73223 8.43451C6.08186 8.78415 6.52732 9.02225 7.01227 9.11871C7.49723 9.21517 7.99989 9.16567 8.45671 8.97645C8.91352 8.78723 9.30397 8.4668 9.57867 8.05567C9.85338 7.64455 10 7.1612 10 6.66675C9.9978 6.00438 9.73371 5.36977 9.26534 4.90141C8.79697 4.43304 8.16236 4.16894 7.5 4.16675ZM7.5 7.50008C7.33518 7.50008 7.17407 7.45121 7.03702 7.35964C6.89998 7.26807 6.79317 7.13792 6.7301 6.98565C6.66703 6.83338 6.65052 6.66582 6.68268 6.50417C6.71483 6.34252 6.7942 6.19404 6.91074 6.07749C7.02729 5.96095 7.17577 5.88158 7.33742 5.84943C7.49908 5.81727 7.66663 5.83378 7.8189 5.89685C7.97117 5.95992 8.10132 6.06673 8.19289 6.20377C8.28446 6.34081 8.33333 6.50193 8.33333 6.66675C8.33267 6.88756 8.24467 7.09914 8.08853 7.25528C7.93239 7.41141 7.72081 7.49942 7.5 7.50008ZM4.425 12.5001C5.3424 11.9072 6.40783 11.5838 7.5 11.5667C7.71704 11.5704 7.93361 11.5882 8.14833 11.6201C8.94965 11.1064 9.88151 10.8334 10.8333 10.8334H11.045C9.95306 10.2492 8.73817 9.93219 7.5 9.90841C5.80833 9.90841 2.5 10.8001 2.5 12.8917V14.1667H6.12417C6.34228 13.5519 6.6786 12.9857 7.11417 12.5001H4.425Z" fill="#224687"/>
<path d="M13.3333 1.66684H9.85C9.67937 1.1797 9.36156 0.757633 8.94056 0.459017C8.51955 0.160402 8.01616 0 7.5 0C6.98384 0 6.48045 0.160402 6.05944 0.459017C5.63844 0.757633 5.32063 1.1797 5.15 1.66684H1.66667C1.22504 1.66815 0.801888 1.84417 0.489612 2.15645C0.177337 2.46872 0.00131894 2.89188 0 3.3335L0 15.0002C0.00131894 15.4418 0.177337 15.8649 0.489612 16.1772C0.801888 16.4895 1.22504 16.6655 1.66667 16.6668H5.95083C5.79341 16.1224 5.79341 15.5446 5.95083 15.0002H1.66667V3.3335H13.3333V10.8335H15V3.3335C14.9987 2.89188 14.8227 2.46872 14.5104 2.15645C14.1981 1.84417 13.775 1.66815 13.3333 1.66684ZM7.5 2.7085C7.33464 2.70719 7.17643 2.64093 7.0595 2.524C6.94257 2.40707 6.87631 2.24886 6.875 2.0835C6.875 1.91774 6.94085 1.75877 7.05806 1.64156C7.17527 1.52435 7.33424 1.4585 7.5 1.4585C7.66576 1.4585 7.82473 1.52435 7.94194 1.64156C8.05915 1.75877 8.125 1.91774 8.125 2.0835C8.12369 2.24886 8.05742 2.40707 7.9405 2.524C7.82357 2.64093 7.66536 2.70719 7.5 2.7085Z" fill="#224687"/>
</g>
<defs>
<clipPath id="clip0_1353_11098">
<rect width="20" height="20" fill="white"/>
</clipPath>
</defs>
</svg>
