<svg xmlns="http://www.w3.org/2000/svg" width="24" height="24" viewBox="0 0 24 24" fill="none">
    <path fill-rule="evenodd" clip-rule="evenodd" d="M12 5H20C21.11 5 22 5.89 22 7V19C22 20.11 21.11 21 20 21H4C2.89 21 2 20.11 2 19L2.01001 5C2.01001 3.89 2.89 3 4 3H10L12 5ZM15.82 9.64999C15.49 9.38999 15.01 9.62001 15.01 10.04V11.5C15.01 11.78 14.79 12 14.51 12H10.51C10.23 12 10.01 12.22 10.01 12.5V13.5C10.01 13.78 10.23 14 10.51 14H14.51C14.79 14 15.01 14.22 15.01 14.5V15.96C15.01 16.38 15.49 16.61 15.82 16.35L19.52 13.39C19.77 13.19 19.77 12.81 19.52 12.61L15.82 9.64999Z" fill="#393939"/>
</svg>