<svg width="17" height="17" viewBox="0 0 17 17" fill="none" xmlns="http://www.w3.org/2000/svg">
<g clip-path="url(#clip0_7493_6037)">
<path d="M14.4335 9.50372C14.4738 9.46559 14.5367 9.46505 14.5774 9.50272C14.6131 9.53569 14.6209 9.58795 14.599 9.62937L14.5876 9.64637L9.14951 16.3628C8.97098 16.5832 8.62117 16.5121 8.5354 16.2499L8.52801 16.2239L7.01512 10.144C7.00173 10.0902 7.03232 10.0353 7.08518 10.0183C7.13802 10.0014 7.19498 10.0284 7.21535 10.08L8.93288 14.4362L8.94096 14.4532C8.9859 14.5347 9.09882 14.5544 9.16788 14.489L14.4335 9.50372ZM10.7359 6.97063C10.7892 6.98614 10.8212 7.04043 10.8092 7.09462C10.7972 7.14879 10.7453 7.1844 10.6904 7.17598L6.00562 6.45425C5.90308 6.4385 5.82101 6.5301 5.84504 6.62693L7.59513 13.6799C7.60849 13.7337 7.57788 13.7887 7.5251 13.8056C7.47225 13.8225 7.41528 13.7955 7.39492 13.7439L4.21049 5.66742C4.10234 5.39288 4.35805 5.12003 4.63885 5.20153L10.7359 6.97063ZM12.8011 9.2409C12.8435 9.20872 12.9034 9.21327 12.9404 9.25159C12.9775 9.28992 12.9799 9.34988 12.9463 9.39124L9.66574 13.4264C9.47614 13.6596 9.10339 13.5629 9.0424 13.2776L9.03758 13.2495L8.64972 10.3936C8.64256 10.3408 8.67601 10.291 8.72757 10.2776C8.7791 10.2641 8.83252 10.2912 8.85209 10.3407L9.35711 11.6216L9.36451 11.6376C9.40614 11.7144 9.50912 11.7385 9.58033 11.6844L12.8011 9.2409ZM9.71124 8.25732C9.76073 8.27735 9.7874 8.33122 9.77331 8.38274C9.75922 8.43424 9.70888 8.46712 9.65608 8.45917L8.26032 8.24902C8.16457 8.23463 8.08484 8.3144 8.09718 8.40651L8.63264 12.4097C8.63969 12.4624 8.60613 12.5122 8.5546 12.5256C8.50307 12.539 8.44969 12.5118 8.43016 12.4622L6.51534 7.60592C6.40063 7.31497 6.69175 7.03577 6.9782 7.15163L9.71124 8.25732ZM16.0528 6.83994C16.3138 6.89963 16.4203 7.22114 16.2378 7.4204L16.2185 7.43989L11.657 11.7447C11.6166 11.7828 11.5537 11.783 11.513 11.7452C11.4724 11.7074 11.468 11.6447 11.503 11.6017L14.4511 7.9752L14.4617 7.96017C14.506 7.8884 14.4766 7.79066 14.3956 7.75562L14.3773 7.74912L7.3518 5.7086C7.29848 5.69311 7.26635 5.63901 7.27835 5.5848C7.29035 5.53059 7.3423 5.49501 7.39716 5.50343L16.0262 6.83485L16.0528 6.83994ZM13.2025 7.85502C13.4771 7.91971 13.5727 8.27057 13.3595 8.46008L13.3371 8.47859L11.0281 10.2371C10.9858 10.2694 10.926 10.265 10.8888 10.2269C10.8517 10.1886 10.849 10.1287 10.8825 10.0872L11.7508 9.01246L11.7608 8.99846C11.8027 8.93132 11.7802 8.84035 11.7082 8.80005L11.6921 8.79226L7.92312 7.23434C7.8738 7.21395 7.84752 7.15981 7.86195 7.10842C7.87639 7.05704 7.92695 7.0246 7.97969 7.0329L13.1742 7.84962L13.2025 7.85502Z" fill="url(#paint0_linear_7493_6037)"/>
</g>
<defs>
<linearGradient id="paint0_linear_7493_6037" x1="12.3229" y1="3.8336" x2="8.62438" y2="16.3802" gradientUnits="userSpaceOnUse">
<stop offset="0.240187" stop-color="#16C8F8"/>
<stop offset="0.828677" stop-color="#844FFE"/>
<stop offset="0.937699" stop-color="#9D45FF"/>
</linearGradient>
<clipPath id="clip0_7493_6037">
<rect width="12.6415" height="11.1667" fill="white" transform="translate(0.196777 10.0566) rotate(-51.5497)"/>
</clipPath>
</defs>
</svg>
