<svg xmlns="http://www.w3.org/2000/svg" width="24" height="24" viewBox="0 0 24 24" fill="none">
    <path fill-rule="evenodd" clip-rule="evenodd" d="M13.5 3C14.26 3 15.01 4 15 5H19C19.55 5 20 5.45 20 6C20 6.55 19.55 7 19 7H5C4.45 7 4 6.55 4 6C4 5.45 4.45 5 5 5H9C9 4 9.75 3 10.5 3H13.5ZM11 5H13V4H11V5ZM5 7V18.27C5 19.78 6.62 21 8 21H16C17.39 21 19 19.71 19 18.2V7H5ZM9.00999 9.55002C9.00999 9.25002 9.46999 9 10.01 9C10.55 9 10.99 9.25002 10.99 9.55002V17.45C10.99 17.75 10.55 18 10.01 18C9.46999 18 9.00999 17.75 9.00999 17.45V9.55002ZM14.99 17.45V9.55002C14.99 9.25002 14.55 9 14.01 9C13.47 9 13.01 9.25002 13.01 9.55002V17.45C13.01 17.75 13.47 18 14.01 18C14.55 18 14.99 17.75 14.99 17.45Z" fill="#393939"/>
</svg>