<svg width="20" height="20" viewBox="0 0 20 20" fill="none" xmlns="http://www.w3.org/2000/svg">
<path d="M12.8337 13.3333C12.5837 13.3333 12.3337 13.0833 12.3337 12.8333C12.3337 12.5833 12.5837 12.3333 12.8337 12.3333C13.0837 12.3333 13.3337 12.5833 13.3337 12.8333C13.3337 13.0833 13.0837 13.3333 12.8337 13.3333ZM18.167 14.8333L15.167 11.8333C15.0003 11.7499 14.8337 11.6666 14.667 11.6666H12.3337C12.0003 11.6666 11.667 11.9999 11.667 12.3333V14.6666C11.667 14.8333 11.7503 14.9999 11.8337 15.1666L14.8337 18.1666C14.917 18.2499 15.0837 18.3333 15.3337 18.3333C15.5837 18.3333 15.667 18.2499 15.8337 18.1666L18.167 15.8333C18.2503 15.7499 18.3337 15.5833 18.3337 15.3333C18.3337 15.1666 18.2503 14.9999 18.167 14.8333ZM8.33366 3.33325C6.50033 3.33325 5.00033 4.83325 5.00033 6.66659C5.00033 8.49992 6.50033 9.99992 8.33366 9.99992C10.167 9.99992 11.667 8.49992 11.667 6.66659C11.667 4.83325 10.167 3.33325 8.33366 3.33325ZM8.33366 4.99992C9.25033 4.99992 10.0003 5.74992 10.0003 6.66659C10.0003 7.58325 9.25033 8.33325 8.33366 8.33325C7.41699 8.33325 6.66699 7.58325 6.66699 6.66659C6.66699 5.74992 7.41699 4.99992 8.33366 4.99992ZM8.33366 10.8333C6.08366 10.8333 1.66699 11.9166 1.66699 14.1666V16.6666H11.0003L10.667 16.3333C10.3337 15.9999 10.0837 15.5833 10.0003 15.0833H3.25033V14.1666C3.25033 13.6666 5.83366 12.4166 8.33366 12.4166C8.91699 12.4166 9.50033 12.4999 10.0003 12.5833V12.3333C10.0003 11.8333 10.167 11.4166 10.417 11.0833C9.66699 10.9166 8.91699 10.8333 8.33366 10.8333Z" fill="#224687"/>
</svg>
