<svg width="252" height="90" viewBox="0 0 252 90" fill="none" xmlns="http://www.w3.org/2000/svg">
<path d="M175.632 45.6472C178.845 45.6472 182.053 45.6351 185.266 45.6533C186.442 45.6594 187.606 45.8111 188.697 46.2723C189.916 46.7942 190.595 47.7166 190.595 49.0578C190.595 49.7618 190.565 50.4839 190.407 51.1636C189.704 54.2161 188.958 57.2565 188.212 60.2969C188.012 61.1283 187.94 61.1768 187.109 61.1829C185.666 61.195 184.223 61.195 182.78 61.1829C181.925 61.1829 181.816 61.0373 182.01 60.2059C182.598 57.7117 183.198 55.2296 183.787 52.7354C183.896 52.262 183.999 51.7765 184.047 51.2911C184.15 50.2655 183.914 49.9317 182.926 49.7618C182.289 49.6525 181.628 49.6283 180.979 49.6222C180.379 49.6161 180.294 49.7011 180.143 50.2958C179.815 51.5884 179.506 52.8871 179.191 54.1858C178.7 56.2248 178.215 58.2639 177.712 60.2969C177.511 61.1161 177.433 61.1768 176.608 61.1829C175.165 61.195 173.722 61.195 172.279 61.1829C171.424 61.1829 171.309 61.0494 171.503 60.2119C172.055 57.8512 172.631 55.4966 173.189 53.142C173.395 52.2681 173.607 51.3942 173.807 50.5203C173.989 49.7132 173.928 49.6283 173.08 49.6161C172.291 49.604 171.503 49.604 170.715 49.6161C169.83 49.6222 169.775 49.6707 169.569 50.5386C168.908 53.2634 168.253 55.9882 167.599 58.719C167.471 59.247 167.35 59.7811 167.211 60.303C166.998 61.0979 166.895 61.1829 166.089 61.189C164.646 61.2011 163.203 61.2011 161.76 61.189C160.802 61.189 160.693 61.0373 160.923 60.133C161.396 58.2578 161.894 56.3887 162.354 54.5135C162.997 51.8979 163.621 49.2702 164.258 46.6546C164.495 45.6897 164.543 45.6472 165.519 45.6472C168.884 45.6412 172.261 45.6472 175.632 45.6472Z" fill="#224687"/>
<path d="M10.6794 47.6195C10.6794 47.8319 10.837 48.0079 11.0492 48.0079C11.8859 48.0261 12.6619 48.0504 13.444 48.0504C15.2387 48.0565 17.0333 48.0504 18.8279 48.0504H19.0704C19.9313 48.0808 19.9859 48.1536 19.804 49.0093C19.6282 49.8285 19.4342 50.6478 19.2402 51.467C18.9976 52.4805 18.9794 52.5473 18.0943 52.5594C17.009 52.5715 15.9177 52.5776 14.8324 52.5776C13.2561 52.5776 11.6797 52.5715 10.0973 52.5837C9.30916 52.5897 9.22428 52.6504 9.01208 53.3969C8.76957 54.2343 8.53918 55.0718 8.3391 55.9214C8.21785 56.4251 8.31485 56.5525 8.79988 56.6011C8.91508 56.6132 9.03027 56.6132 9.14547 56.6132C12.2254 56.6132 15.3053 56.6132 18.3853 56.6193C19.513 56.6193 19.5675 56.6982 19.3068 57.7966C19.1068 58.6462 18.9006 59.4898 18.6824 60.3333C18.4944 61.0797 18.3732 61.1768 17.6274 61.195C17.1909 61.2072 16.7544 61.195 16.3239 61.195H1.22735C-0.0761646 61.195 -0.167108 61.0797 0.160287 59.8417C1.65175 54.1858 3.14322 48.5238 4.64681 42.8678C4.7802 42.3702 4.94389 41.8726 5.18035 41.4174C5.68357 40.4464 6.50205 39.9185 7.61762 39.9185C12.5407 39.9185 17.4637 39.9185 22.3868 39.9245C23.1931 39.9245 23.3023 40.0884 23.1265 40.8591C22.9143 41.7876 22.6899 42.7161 22.4656 43.6385C22.2595 44.4821 22.1806 44.5488 21.2955 44.5549C18.4398 44.561 15.5842 44.561 12.7286 44.561C11.4554 44.561 11.4372 44.561 11.1159 45.7747C10.9461 46.3512 10.7036 46.9095 10.6794 47.6135V47.6195Z" fill="#224687"/>
<path d="M34.0275 61.2011C32.8271 61.2011 31.7903 61.2011 30.7596 61.2011C29.6501 61.2011 29.5592 61.0858 29.8138 60.0238C30.4322 57.4264 31.0628 54.8351 31.6812 52.2438C32.5603 48.5662 33.4394 44.8826 34.3185 41.205C34.5206 40.3595 35.0683 39.9367 35.9616 39.9367C37.2651 39.9367 38.5747 39.9306 39.8782 39.9367C40.9089 39.9427 40.9998 40.0702 40.7634 41.1079C40.5148 42.1942 40.2602 43.2805 40.0055 44.3668C39.9691 44.5246 39.9206 44.6823 39.8964 44.8462C39.8115 45.4773 39.9267 45.623 40.5815 45.6351C41.7759 45.6594 42.9824 45.5866 44.1707 45.6897C45.1347 45.7686 46.129 45.9264 47.0385 46.242C49.8213 47.2069 51.1673 49.6889 50.5913 52.5897C50.1972 54.5681 49.1423 56.152 47.6266 57.4386C45.3651 59.3684 42.6914 60.3576 39.8055 60.8916C37.829 61.2436 35.8464 61.2193 34.0275 61.2011ZM37.0347 57.0866C37.3197 57.0987 37.4834 57.1291 37.641 57.1109C39.3689 56.9045 40.9998 56.413 42.3397 55.2599C42.8187 54.8473 43.2552 54.3132 43.5402 53.7488C44.4435 51.9647 43.6554 50.2594 41.7092 49.786C41.0362 49.6222 40.3147 49.6404 39.6114 49.6283C38.7808 49.6161 38.7263 49.6707 38.5201 50.5082C38.0472 52.432 37.5864 54.3618 37.1317 56.2916C37.0772 56.5161 37.0772 56.7589 37.0347 57.0866Z" fill="#224687"/>
<path d="M82.2395 61.189C81.4938 61.189 81.4028 61.1162 81.2876 60.3697C81.1421 59.4048 81.0269 58.4278 80.9117 57.4568C80.8329 56.7953 80.9784 56.6314 81.6696 56.6254C83.0822 56.6132 84.501 56.6314 85.9136 56.6254C86.8109 56.6254 87.7082 56.6375 88.6055 56.595C89.1754 56.5647 89.806 56.5101 90.0606 55.885C90.3092 55.2721 89.8424 54.8655 89.4786 54.4649C87.878 52.7233 86.2531 50.9998 84.6586 49.2459C84.2584 48.809 83.8886 48.3235 83.5673 47.8259C82.7367 46.5151 82.7124 45.1618 83.446 43.7963C84.2281 42.3459 85.4043 41.3446 86.9322 40.7499C88.2418 40.2401 89.6059 39.9792 90.9943 39.9549C93.5771 39.9124 96.1599 39.9367 98.7487 39.9306C98.8821 39.9306 99.0215 39.9306 99.1549 39.9488C99.5914 40.0216 99.7248 40.1794 99.6157 40.6224C99.4884 41.1504 99.3126 41.6662 99.1549 42.1881C98.9912 42.7343 98.8336 43.2866 98.6517 43.8267C98.4456 44.4578 98.3304 44.5488 97.6453 44.5549C96.4509 44.567 95.2504 44.5488 94.0561 44.5731C93.4316 44.5852 92.8071 44.6338 92.1826 44.6945C91.9462 44.7187 91.6976 44.7976 91.4914 44.9129C91.0125 45.18 90.8852 45.6048 91.1519 46.0903C91.3217 46.3937 91.5581 46.6668 91.8007 46.9217C93.4255 48.6027 95.0807 50.2594 96.6873 51.9647C97.2027 52.5109 97.6635 53.142 98.0394 53.7913C98.5971 54.7623 98.6214 55.8122 98.2091 56.862C97.7605 58.0212 96.9844 58.9072 95.9659 59.5929C94.7169 60.4304 93.3285 60.9098 91.8431 61.0251C90.0303 61.1647 83.6218 61.2011 82.2395 61.189Z" fill="#224687"/>
<path d="M107.758 52.9053C107.892 52.7111 108.037 52.523 108.152 52.3167C109.244 50.4597 110.359 48.6209 111.396 46.7396C111.863 45.89 112.457 45.5441 113.427 45.5926C114.918 45.6655 116.422 45.6108 117.913 45.623C118.198 45.623 118.477 45.6715 118.768 45.7019C118.829 46.2662 118.489 46.5575 118.271 46.8792C115.846 50.399 113.409 53.9127 110.971 57.4264C109.298 59.8417 107.625 62.2631 105.951 64.6784C105.527 65.2914 105.072 65.88 104.387 66.1895C103.926 66.3958 103.411 66.5961 102.914 66.6143C101.392 66.6689 99.8643 66.6386 98.3425 66.6265C98.1909 66.6265 98.0393 66.5597 97.8393 66.5172C97.8878 66.3655 97.8999 66.2563 97.9545 66.1774C99.0397 64.7452 100.131 63.3251 101.216 61.8929C101.562 61.4378 101.859 60.9402 102.229 60.5093C102.799 59.8417 102.878 59.1439 102.647 58.3064C101.695 54.8109 100.786 51.3093 99.8643 47.8077C99.7369 47.3343 99.6036 46.861 99.5065 46.3816C99.3974 45.8293 99.5187 45.6412 100.046 45.6351C101.895 45.6169 103.744 45.6169 105.6 45.6351C106.133 45.6412 106.242 45.7565 106.358 46.3998C106.636 47.923 106.897 49.4583 107.164 50.9876C107.273 51.6188 107.4 52.2499 107.516 52.881C107.6 52.881 107.679 52.8932 107.758 52.9053Z" fill="#224687"/>
<path d="M153.302 56.8196C155.188 57.5053 157.201 57.0623 159.244 57.3111C159.147 57.6024 159.117 57.8088 159.02 57.9847C158.51 58.8526 157.983 59.7082 157.474 60.576C157.249 60.9523 156.97 61.2132 156.504 61.195C154.685 61.1465 152.854 61.2254 151.053 61.0191C147.67 60.6367 144.99 58.1183 144.311 54.8048C143.632 51.4913 145.378 47.5467 148.804 46.2784C149.986 45.8414 151.193 45.5198 152.442 45.4106C154.503 45.2285 156.564 45.1557 158.607 45.629C159.359 45.805 160.056 46.0903 160.675 46.5575C161.481 47.1765 161.906 47.9837 161.918 49.0093C161.942 51.0422 161.039 52.6201 159.523 53.8884C158.31 54.9019 156.886 55.5027 155.394 55.9578C154.703 56.1702 154.006 56.3705 153.309 56.5768C153.296 56.6618 153.302 56.7407 153.302 56.8196ZM150.423 52.2256C150.386 53.0874 150.544 53.2391 151.217 53.1056C152.345 52.881 153.424 52.5169 154.351 51.813C154.782 51.4853 155.2 51.1211 155.534 50.7024C156.116 49.962 155.776 49.2277 154.842 49.161C153.642 49.076 152.52 49.343 151.575 50.138C150.877 50.7206 150.495 51.4792 150.423 52.2256Z" fill="#224687"/>
<path d="M70.5745 40.143C70.5321 40.5253 70.526 40.8166 70.4654 41.0958C70.2168 42.267 69.944 43.4322 69.6954 44.6034C69.6348 44.8826 69.6287 45.18 69.5863 45.5562C69.9561 45.5926 70.2411 45.629 70.5321 45.6412C71.102 45.6594 71.678 45.6351 72.2479 45.6654C72.7572 45.6958 72.8663 45.8414 72.7632 46.3512C72.5874 47.2008 72.3691 48.0504 72.1691 48.894C72.0721 49.2945 71.8235 49.4826 71.4051 49.4765C70.7504 49.4705 70.1016 49.4765 69.4468 49.4947C68.6041 49.5129 68.5132 49.5797 68.3191 50.3626C67.9069 52.0557 67.4946 53.7488 67.1066 55.4481C66.8519 56.5525 67.1429 56.9773 68.2403 57.1473C68.6708 57.214 69.1073 57.208 69.5378 57.2322C69.8591 57.2504 70.1804 57.2686 70.6109 57.2868C70.5503 57.5599 70.5503 57.7784 70.4533 57.9423C69.9076 58.8526 69.3377 59.7507 68.7678 60.6428C68.5313 61.013 68.1979 61.2193 67.7432 61.2072C66.3305 61.1586 64.9179 61.1586 63.5113 61.0433C62.905 60.9948 62.2866 60.7763 61.7288 60.5214C60.7891 60.0845 60.2616 59.2834 60.2676 58.2457C60.2676 57.5175 60.3707 56.7832 60.5284 56.0671C60.9164 54.289 61.365 52.5169 61.7894 50.7449C61.8319 50.5568 61.8804 50.3747 61.9107 50.1866C61.9834 49.8042 61.8682 49.5736 61.4499 49.4826C60.7163 49.3188 60.6799 49.2581 60.8254 48.5784C60.9891 47.8319 61.1831 47.0976 61.359 46.3573C61.4681 45.9021 61.7349 45.6837 62.2138 45.6412C63.0141 45.5744 63.0202 45.5501 63.2263 44.743C63.4022 44.0573 63.5598 43.3654 63.7174 42.6797C63.8205 42.2245 64.0569 41.8726 64.5238 41.7391C66.379 41.205 68.2343 40.677 70.0895 40.1491C70.1926 40.1187 70.3078 40.1491 70.5745 40.1491V40.143Z" fill="#224687"/>
<path d="M142.456 57.2747C142.353 57.566 142.323 57.7299 142.244 57.8634C141.656 58.8101 141.062 59.7568 140.473 60.7035C140.273 61.0312 139.994 61.2132 139.6 61.2011C138.133 61.1526 136.666 61.1222 135.205 61.0494C134.805 61.0312 134.404 60.8977 134.023 60.7642C132.549 60.2483 131.846 59.1863 131.991 57.6267C132.052 56.9774 132.204 56.3402 132.349 55.7029C132.755 53.9552 133.192 52.2135 133.598 50.4657C133.78 49.6829 133.768 49.6768 132.992 49.4826C132.483 49.3552 132.422 49.2763 132.537 48.7422C132.713 47.9473 132.919 47.1523 133.101 46.3573C133.204 45.8961 133.471 45.6837 133.956 45.6472C134.762 45.5866 134.762 45.5623 134.974 44.7612C135.09 44.3122 135.223 43.8691 135.296 43.414C135.405 42.7586 135.781 42.4066 136.405 42.2731C137.678 41.9939 138.952 41.7087 140.225 41.4296C140.57 41.3567 140.916 41.2839 141.262 41.2172C142.104 41.0654 142.22 41.1868 142.026 42.0546C141.862 42.8011 141.68 43.5414 141.51 44.2818C141.456 44.5185 141.389 44.7552 141.359 44.9979C141.298 45.4531 141.401 45.6048 141.862 45.629C142.511 45.6655 143.165 45.6351 143.82 45.6594C144.511 45.6837 144.633 45.8414 144.487 46.5211C144.335 47.2372 144.16 47.9533 143.978 48.6633C143.79 49.3916 143.681 49.4705 142.893 49.4826C142.238 49.4947 141.589 49.5008 140.934 49.5069C140.461 49.513 140.201 49.7314 140.091 50.2108C139.679 52.0132 139.224 53.8095 138.812 55.6119C138.618 56.4737 138.891 56.9227 139.752 57.0927C140.304 57.2019 140.886 57.1898 141.45 57.2262C141.747 57.2444 142.044 57.2504 142.456 57.2747Z" fill="#224687"/>
<path d="M201.054 45.6533C202.139 45.6533 203.23 45.6412 204.315 45.6594C205.104 45.6715 205.231 45.8354 205.061 46.6C204.91 47.2918 204.752 47.9776 204.57 48.6634C204.388 49.3612 204.267 49.4523 203.558 49.4826C202.745 49.513 201.927 49.5251 201.114 49.5554C200.926 49.5615 200.732 49.5797 200.544 49.6161C199.726 49.7739 199.52 50.2594 199.999 50.9694C200.272 51.376 200.599 51.7462 200.902 52.1225C201.448 52.8021 202.042 53.4454 202.527 54.1676C202.915 54.7441 203.279 55.3874 203.448 56.0549C203.752 57.2504 203.351 58.3125 202.497 59.1924C201.217 60.5093 199.623 61.1465 197.816 61.195C195.724 61.2436 193.633 61.2193 191.535 61.2072C190.783 61.2072 190.68 61.1162 190.559 60.4061C190.431 59.6536 190.31 58.9011 190.225 58.1486C190.14 57.3536 190.244 57.2565 191.062 57.2444C192.256 57.2322 193.457 57.2444 194.651 57.2383C194.924 57.2383 195.197 57.2383 195.464 57.1837C196.07 57.0684 196.276 56.6436 196.003 56.1035C195.906 55.9093 195.761 55.7454 195.627 55.5755C194.815 54.5499 194.003 53.5304 193.19 52.5048C193.105 52.3955 193.026 52.2863 192.948 52.1771C191.523 50.1866 191.802 48.4267 193.796 46.9702C195.027 46.0721 196.458 45.7504 197.943 45.6776C198.986 45.6169 200.023 45.6533 201.054 45.6533Z" fill="#224687"/>
<path d="M127.22 45.6472C128.281 45.6472 129.342 45.6351 130.403 45.6533C131.337 45.6655 131.428 45.799 131.215 46.7396C131.07 47.3768 130.93 48.014 130.773 48.6512C130.597 49.3248 130.445 49.4523 129.754 49.4765C129.045 49.5008 128.336 49.4705 127.632 49.5008C127.202 49.519 126.759 49.5676 126.347 49.7011C125.838 49.8649 125.692 50.2837 125.983 50.7388C126.244 51.1515 126.571 51.5217 126.88 51.8979C127.481 52.6383 128.093 53.3665 128.687 54.113C128.893 54.3678 129.075 54.6409 129.239 54.9262C130.021 56.3159 129.894 57.7299 128.869 58.9497C127.923 60.0845 126.686 60.7399 125.256 61.013C124.674 61.1222 124.067 61.1829 123.473 61.189C121.594 61.2132 119.72 61.2072 117.841 61.189C116.943 61.189 116.889 61.1344 116.737 60.2483C116.628 59.6051 116.519 58.9618 116.44 58.3124C116.313 57.2747 116.355 57.2262 117.368 57.2262C118.538 57.2262 119.708 57.2444 120.878 57.2383C121.175 57.2383 121.484 57.214 121.757 57.1291C122.254 56.9713 122.382 56.6436 122.157 56.1763C122.03 55.9093 121.848 55.6665 121.666 55.4299C121.072 54.6531 120.46 53.8824 119.86 53.1056C119.611 52.7839 119.356 52.4623 119.12 52.1285C117.774 50.223 117.98 48.6087 119.781 47.128C121.012 46.1145 122.479 45.7443 124.031 45.6715C125.092 45.623 126.153 45.6594 127.214 45.6594C127.214 45.6594 127.216 45.6533 127.22 45.6412V45.6472Z" fill="#224687"/>
<path d="M23.8783 61.2011C23.1689 61.2011 22.4656 61.2011 21.7563 61.2011C20.6892 61.189 20.5922 61.0615 20.8408 59.9813C21.156 58.628 21.4592 57.2747 21.7866 55.9275C23.0113 50.933 24.2481 45.9446 25.4789 40.9562C25.7214 39.9731 25.7699 39.9367 26.8066 39.9306C28.2496 39.9245 29.6865 39.9185 31.1295 39.9306C31.9662 39.9427 32.0874 40.0945 31.8934 40.9259C31.0628 44.476 30.214 48.0201 29.3652 51.5641C28.6922 54.3678 28.0132 57.1655 27.3341 59.9692C27.2917 60.1512 27.2371 60.3394 27.1947 60.5214C27.0855 60.9887 26.7945 61.195 26.3156 61.189C25.5031 61.1768 24.6846 61.189 23.8722 61.189C23.8722 61.189 23.8722 61.195 23.8722 61.2072L23.8783 61.2011Z" fill="#224687"/>
<path d="M53.162 61.2011C52.398 61.2011 51.6402 61.2132 50.8763 61.2011C50.0335 61.1829 49.9062 61.0373 50.1002 60.218C50.8944 56.8803 51.6947 53.5486 52.495 50.2108C52.7921 48.9668 53.0892 47.7227 53.4045 46.4847C53.5924 45.7565 53.6894 45.6655 54.3988 45.6594C55.9751 45.6472 57.5515 45.6472 59.1339 45.6594C59.9342 45.6655 60.0373 45.805 59.8432 46.6061C58.8247 50.7874 57.8001 54.9626 56.7754 59.1378C56.6663 59.5869 56.5693 60.042 56.442 60.485C56.2601 61.1161 56.1813 61.1829 55.5325 61.195C54.7383 61.2072 53.9501 61.195 53.162 61.195V61.2011Z" fill="#224687"/>
<path d="M57.2847 44.0269C56.4723 44.0269 55.6599 44.0451 54.8414 44.0209C54.1926 44.0027 54.0653 43.8509 54.1926 43.2198C54.3624 42.3702 54.5564 41.5206 54.7686 40.677C54.9202 40.0823 55.0718 39.9488 55.672 39.9427C57.2968 39.9245 58.9278 39.9245 60.5526 39.9427C61.171 39.9488 61.3408 40.1612 61.2195 40.762C61.0498 41.6116 60.8497 42.4612 60.6314 43.2987C60.4799 43.8813 60.3161 44.0087 59.7159 44.0209C58.9156 44.0451 58.0971 44.0269 57.2847 44.0269Z" fill="#224687"/>
<path d="M251.891 70.6864C251.927 70.6075 251.964 70.5225 252 70.4436C251.818 70.2252 251.654 69.9763 251.442 69.7882C247.647 66.3959 243.845 63.0096 240.044 59.6233C233.545 53.8278 227.045 48.0262 220.546 42.2246C212.991 35.4823 205.437 28.7401 197.883 21.9918C193.414 18.0047 188.94 14.0237 184.478 10.0305C181.052 6.95983 177.639 3.87697 174.213 0.800179C173.116 -0.189005 173.013 -0.201142 171.703 0.436062C169.721 1.40097 167.738 2.36588 165.756 3.33686C160.154 6.06774 154.557 8.81682 148.949 11.5295C136.308 17.6406 123.655 23.7335 111.008 29.8446C106.964 31.7987 102.926 33.7588 98.8882 35.7251C98.6153 35.8586 98.3546 36.0224 98.0939 36.1741H104.545C104.599 36.1499 104.648 36.1256 104.702 36.1013C105.897 35.5066 107.103 34.9422 108.304 34.3596C119.284 29.0557 130.264 23.7578 141.237 18.4416C151.326 13.5564 161.409 8.6469 171.497 3.74346C172.485 3.26404 172.649 3.28831 173.449 4.00441C178.851 8.82896 184.247 13.6535 189.662 18.4659C196.173 24.2554 202.697 30.0266 209.208 35.8161C217.733 43.3958 226.251 50.9816 234.769 58.5673C237.819 61.28 240.869 63.9988 243.912 66.7236C244.094 66.8874 244.246 67.0937 244.458 67.3304C243.755 67.646 243.154 67.5125 242.566 67.5125C217.011 67.5125 191.456 67.5125 165.901 67.5246C158.038 67.5246 150.168 67.5246 142.304 67.5246C138.163 67.5246 134.198 68.3257 130.409 70.0006C128.287 70.9413 126.274 72.0761 124.34 73.3505C122.206 74.7584 120.096 76.2088 117.92 77.556C115.488 79.0671 112.815 79.8257 109.929 79.7954C108.025 79.7772 106.121 79.8136 104.211 79.8196C75.0914 79.8196 45.9714 79.8378 16.8453 79.8439C16.427 79.8439 16.0087 79.8439 15.5903 79.8318L15.554 79.6315C17.8821 78.4845 20.2102 77.3254 22.5444 76.1967C24.9211 75.0497 27.3099 73.9209 29.6926 72.7861C32.051 71.6634 34.4216 70.5589 36.768 69.412C39.09 68.2832 41.4667 67.2697 43.716 65.9225H37.641C37.4652 65.9893 37.2954 66.0621 37.1257 66.147C33.9972 67.6763 30.8566 69.1874 27.7282 70.7228C21.3016 73.8785 14.881 77.0402 8.46039 80.202C7.11443 80.8634 5.76848 81.5128 4.42858 82.1803C4.20425 82.2896 3.89505 82.3442 3.90111 82.7933C4.27095 82.8115 4.61047 82.8418 4.95605 82.8418C10.2368 82.8418 15.5176 82.8418 20.7983 82.8539C21.1015 82.8539 21.4046 82.9025 21.7078 82.9328C21.7199 83.0057 21.732 83.0785 21.7441 83.1513C16.9909 85.3299 12.2315 87.5025 7.47821 89.6811C7.49033 89.754 7.50246 89.8268 7.51458 89.9057C7.87836 89.936 8.23607 89.9906 8.59984 89.9906C38.5626 89.9906 68.5314 89.9906 98.4941 89.9906C102.659 89.9906 106.824 90.021 110.984 89.9724C112.226 89.9603 113.481 89.7964 114.706 89.5719C117.78 89.0075 120.527 87.636 123.152 85.9914C125.662 84.4136 128.135 82.769 130.676 81.2397C131.955 80.475 133.313 79.8136 134.695 79.2613C137.533 78.1326 140.516 77.7199 143.565 77.7199C176.499 77.732 209.426 77.732 242.36 77.732C242.797 77.732 243.233 77.7442 243.664 77.7199C243.858 77.7078 244.052 77.6289 244.288 77.5743C244.106 77.0099 243.706 76.7489 243.366 76.4576C241.469 74.8252 239.559 73.2048 237.655 71.5724C237.425 71.3721 237.219 71.1476 237 70.9291C237.031 70.8624 237.061 70.7956 237.085 70.7228C242.027 70.6985 246.956 70.6924 251.891 70.6803V70.6864Z" fill="#224687"/>
</svg>
